<?xml version="1.0" encoding="UTF-8"?>
<svg id="content" xmlns="http://www.w3.org/2000/svg" viewBox="0 0 150 44.18">
  <defs>
    <style>
      .cls-1 {
        fill: #6450dc;
        stroke-width: 0px;
      }
    </style>
  </defs>
  <path class="cls-1" d="M19.85,44.18c-2.93,0-5.61-.54-8.04-1.62-2.43-1.08-4.53-2.61-6.3-4.57-1.77-1.97-3.13-4.27-4.08-6.92-.95-2.64-1.43-5.53-1.43-8.66v-.68c0-3.11.48-5.98,1.43-8.61.95-2.63,2.31-4.94,4.07-6.9,1.76-1.97,3.85-3.5,6.28-4.59C14.21.55,16.89,0,19.82,0s5.58.55,8.02,1.64c2.44,1.09,4.56,2.62,6.37,4.59,1.81,1.97,3.21,4.27,4.19,6.9.98,2.64,1.47,5.51,1.47,8.61v.68c0,3.13-.49,6.01-1.47,8.66-.98,2.65-2.37,4.95-4.17,6.92-1.8,1.97-3.92,3.49-6.36,4.57-2.44,1.08-5.11,1.62-8.02,1.62ZM19.85,36.96c2.3,0,4.24-.61,5.83-1.83,1.58-1.22,2.78-2.91,3.58-5.09.81-2.17,1.21-4.71,1.21-7.62v-.74c0-2.85-.41-5.36-1.22-7.52-.82-2.16-2.02-3.85-3.6-5.07-1.58-1.22-3.53-1.83-5.83-1.83s-4.31.6-5.84,1.81c-1.53,1.21-2.67,2.89-3.42,5.04-.75,2.15-1.12,4.68-1.12,7.57v.74c0,2.91.38,5.46,1.14,7.64.76,2.18,1.91,3.88,3.45,5.09,1.54,1.21,3.48,1.81,5.82,1.81Z"/>
  <path class="cls-1" d="M83.77,42.81v-4.16c0-.38.28-.7.65-.75l3.23-.44c.37-.05.65-.37.65-.75V7.49c0-.38-.28-.7-.65-.75l-3.23-.43c-.37-.05-.65-.37-.65-.75V1.37c0-.42.34-.76.76-.76h33.24c.42,0,.76.34.76.76v10.67c0,.42-.34.76-.76.76h-5.69c-.41,0-.74-.32-.75-.72l-.14-3.48c-.02-.4-.35-.72-.75-.72h-11.92c-.42,0-.76.34-.76.76v9.43c0,.42.34.76.76.76h13.3c.42,0,.76.34.76.76v5.72c0,.42-.34.76-.76.76h-13.3c-.42,0-.76.34-.76.76v9.92c0,.38.28.7.65.75l3.21.43c.37.05.65.37.65.75v4.16c0,.42-.34.76-.76.76h-16.98c-.42,0-.76-.34-.76-.76Z"/>
  <path class="cls-1" d="M118.51,42.81v-4.27c0-.42.34-.76.76-.76h29.98c.42,0,.76.34.76.76v4.27c0,.42-.34.76-.76.76h-29.98c-.42,0-.76-.34-.76-.76Z"/>
  <path class="cls-1" d="M64.7,44.18c-4.13,0-7.77-.85-10.91-2.55-3.15-1.7-5.59-4.13-7.34-7.3-1.75-3.17-2.63-6.96-2.63-11.39v-1.68c0-4.15.83-7.82,2.48-11.02,1.65-3.2,4.01-5.7,7.06-7.52C56.41.91,60.05,0,64.26,0,67.21,0,69.99.4,72.62,1.21c2.43.75,4.66,1.93,6.68,3.54.3.24.47.61.47.99v7.2c0,.42-.34.76-.76.76h-5.81c-.39,0-.71-.29-.75-.68l-.3-2.99c-.03-.3-.19-.58-.45-.74-.61-.38-1.32-.79-1.93-1.06-.75-.33-1.55-.59-2.42-.77-.87-.18-1.8-.27-2.8-.27-2.32,0-4.33.56-6.02,1.68-1.69,1.12-3,2.72-3.92,4.81-.92,2.08-1.39,4.59-1.39,7.52v1.74c0,2.83.48,5.3,1.43,7.42.95,2.11,2.31,3.75,4.06,4.91,1.75,1.16,3.79,1.74,6.11,1.74,1.22,0,2.44-.13,3.66-.4,1-.22,2.09-.55,3.04-.91.36-.13.62-.45.66-.84l.3-2.66c.04-.38.37-.67.75-.67h5.83c.42,0,.76.34.76.76v7.04c0,.43-.21.84-.58,1.07-1.59.98-3.53,1.84-5.81,2.56-2.57.82-5.47,1.22-8.72,1.22Z"/>
</svg>